<svg xmlns="http://www.w3.org/2000/svg" xmlns:xlink="http://www.w3.org/1999/xlink" viewBox="0 0 45.25 41"><defs><style>.cls-1{isolation:isolate;}.cls-2{fill:#4b3955;}.cls-3{fill:url(#linear-gradient);}.cls-10,.cls-4,.cls-5{mix-blend-mode:multiply;}.cls-4{fill:url(#linear-gradient-2);}.cls-6{fill:url(#linear-gradient-3);}.cls-7{mix-blend-mode:overlay;opacity:0.56;}.cls-8{fill:#fff;}.cls-10,.cls-9{fill:#c8c6c6;}</style><linearGradient id="linear-gradient" x1="126.05" y1="11.7" x2="69.68" y2="19.75" gradientUnits="userSpaceOnUse"><stop offset="0" stop-color="#ddd8c9"/><stop offset="0.13" stop-color="#dbd6c3"/><stop offset="0.3" stop-color="#d6cfb2"/><stop offset="0.49" stop-color="#cec397"/><stop offset="0.54" stop-color="#ccc08f"/><stop offset="0.69" stop-color="#afa57d"/><stop offset="0.89" stop-color="#918869"/><stop offset="1" stop-color="#857d62"/></linearGradient><linearGradient id="linear-gradient-2" x1="108.43" y1="13.7" x2="105.11" y2="17.53" gradientUnits="userSpaceOnUse"><stop offset="0" stop-color="#b4b2b3" stop-opacity="0"/><stop offset="1" stop-color="#878787"/></linearGradient><linearGradient id="linear-gradient-3" x1="99.64" y1="24.75" x2="108.48" y2="24.75" xlink:href="#linear-gradient-2"/></defs><g class="cls-1"><g id="Layer_1" data-name="Layer 1"><path class="cls-2" d="M82.81,41.92h.25V43.2a1.78,1.78,0,0,1-.35,1.14,1.24,1.24,0,0,1-1,.43,1.21,1.21,0,0,1-1-.43,1.73,1.73,0,0,1-.35-1.14,2,2,0,0,1,.1-.64h.28a1.69,1.69,0,0,0-.12.64,1.52,1.52,0,0,0,.27.92,1,1,0,0,0,.78.4,1,1,0,0,0,.81-.4,1.44,1.44,0,0,0,.28-.92Zm-.92.79H81.6V42.4h.29Z" transform="translate(-77.38 -3.78)"/><path class="cls-2" d="M85.46,44h0a.75.75,0,0,1-.85.78,1.11,1.11,0,0,1-.28,0l-.17-.07,0-.23a.82.82,0,0,0,.26.1h.2c.4,0,.61-.17.62-.56h-.55a1,1,0,0,1-.73-.29,1,1,0,0,1-.29-.7,1.05,1.05,0,0,1,.28-.74,1,1,0,0,1,.74-.32h.8v1.82h.67V44Zm-.25-.23V42.15h-.55a.71.71,0,0,0-.55.26.8.8,0,0,0-.19.53.84.84,0,0,0,.19.55.71.71,0,0,0,.55.25Z" transform="translate(-77.38 -3.78)"/><path class="cls-2" d="M86.09,44v-.23h.38c.37,0,.55-.19.55-.57v-1.1h.25v1a.68.68,0,0,0,.16.48.58.58,0,0,0,.47.2h.18V44h-.14a.79.79,0,0,1-.47-.14.76.76,0,0,1-.26-.31.71.71,0,0,1-.21.31.68.68,0,0,1-.46.14Zm.57.8h-.29v-.31h.29Zm.63,0H87v-.31h.29Z" transform="translate(-77.38 -3.78)"/><path class="cls-2" d="M88.88,44H88v-.23h.84Z" transform="translate(-77.38 -3.78)"/><path class="cls-2" d="M90.62,41.85a.84.84,0,0,1,.31.12.9.9,0,0,1,.27.28,1.35,1.35,0,0,1,.17.49,2.56,2.56,0,0,1-.33.48,2.74,2.74,0,0,1-.5.47,1.06,1.06,0,0,0,.31.05h.94V44h-.86a1.41,1.41,0,0,1-.62-.15,1.33,1.33,0,0,1-.6.15h-.87v-.23h1a1.18,1.18,0,0,0,.31-.05,2.79,2.79,0,0,1-.51-.47,2.56,2.56,0,0,1-.33-.48,1.35,1.35,0,0,1,.18-.49.9.9,0,0,1,.27-.28.77.77,0,0,1,.31-.12,1.35,1.35,0,0,1,.29,0A1.37,1.37,0,0,1,90.62,41.85Zm-1.06.9,0,.09a1.58,1.58,0,0,0,.15.24,1.55,1.55,0,0,0,.24.27,1.36,1.36,0,0,0,.31.24,1.22,1.22,0,0,0,.32-.24,1.55,1.55,0,0,0,.24-.27c.06-.08.11-.16.16-.24a.39.39,0,0,1,0-.09l0-.06a1,1,0,0,0-.16-.37.87.87,0,0,0-.23-.2.68.68,0,0,0-.24-.08l-.09,0h-.13l-.09,0a.63.63,0,0,0-.23.08.74.74,0,0,0-.23.2.83.83,0,0,0-.16.37Z" transform="translate(-77.38 -3.78)"/><path class="cls-2" d="M91.71,44v-.23h.42c.37,0,.55-.19.55-.57V41h.25v2.07a.73.73,0,0,0,.15.48.61.61,0,0,0,.48.2h.32V44H93.6a.76.76,0,0,1-.46-.14.72.72,0,0,1-.27-.31.58.58,0,0,1-.21.31.68.68,0,0,1-.46.14Z" transform="translate(-77.38 -3.78)"/><path class="cls-2" d="M93.84,44v-.23h.4q.54,0,.54-.57V41H95v2.25a.59.59,0,0,1,0,.13.84.84,0,0,1-.09.28.69.69,0,0,1-.22.23.82.82,0,0,1-.4.09Z" transform="translate(-77.38 -3.78)"/><path class="cls-2" d="M98.62,41.92h.25V43.2a1.73,1.73,0,0,1-.36,1.14,1.22,1.22,0,0,1-1,.43,1.21,1.21,0,0,1-1-.43,1.73,1.73,0,0,1-.36-1.14,2.37,2.37,0,0,1,.1-.64h.29a1.69,1.69,0,0,0-.12.64,1.52,1.52,0,0,0,.27.92,1,1,0,0,0,.78.4,1,1,0,0,0,.81-.4,1.44,1.44,0,0,0,.28-.92Zm-.92.79h-.29V42.4h.29Z" transform="translate(-77.38 -3.78)"/><path class="cls-2" d="M100.26,44a.82.82,0,0,1-.4-.09.8.8,0,0,1-.22-.23,1.15,1.15,0,0,1-.09-.28s0-.09,0-.13V41h.25v2.18q0,.57.54.57h.22V44Z" transform="translate(-77.38 -3.78)"/><path class="cls-2" d="M101.35,44h-.84v-.23h.84Z" transform="translate(-77.38 -3.78)"/><path class="cls-2" d="M103.84,41.92a1,1,0,0,1,.76.33,1.11,1.11,0,0,1,.27.75.91.91,0,0,1-.29.69,1,1,0,0,1-.74.28h-2.51v-.23h2.51a.71.71,0,0,0,.56-.24.83.83,0,0,0,0-1.08.69.69,0,0,0-.56-.27h-1.92A1.18,1.18,0,0,1,103.09,41h.55v.2h-.5a1,1,0,0,0-.61.22.82.82,0,0,0-.34.51Z" transform="translate(-77.38 -3.78)"/><path class="cls-2" d="M106.24,41.92h.25V44a.71.71,0,0,1-.25.55.77.77,0,0,1-.6.23.79.79,0,0,1-.28,0l-.11,0-.06,0,0-.23a.79.79,0,0,0,.27.1l.11,0h.08a.56.56,0,0,0,.62-.55Z" transform="translate(-77.38 -3.78)"/><path class="cls-2" d="M106.79,40.72l.06-.14H107v-.16q0-.36.3-.36a.26.26,0,0,1,.28.28h-.16a.12.12,0,0,0-.13-.14c-.09,0-.14.07-.14.22v.16h.3a.08.08,0,0,0,0,0l.11.1a.26.26,0,0,1-.22.1Zm.6.27h-.24v3h.24Z" transform="translate(-77.38 -3.78)"/><path class="cls-2" d="M109.74,42.07H110v1a.67.67,0,0,0,.16.46.56.56,0,0,0,.46.19h.19V44h-.15a.82.82,0,0,1-.4-.1.78.78,0,0,1-.26-.25V44a.71.71,0,0,1-.25.55.77.77,0,0,1-.6.23.71.71,0,0,1-.27,0l-.11,0-.07,0,0-.23a.79.79,0,0,0,.27.1l.11,0h.08a.55.55,0,0,0,.62-.55Zm.26-.63h-.29v-.31H110Z" transform="translate(-77.38 -3.78)"/><path class="cls-2" d="M113.3,41.92a1,1,0,0,1,.75.33,1.11,1.11,0,0,1,.27.75.91.91,0,0,1-.29.69,1,1,0,0,1-.73.28h-2.52v-.23h2.52a.71.71,0,0,0,.55-.24.8.8,0,0,0,0-1.08.69.69,0,0,0-.55-.27h-1.93A1.18,1.18,0,0,1,112.54,41h.55v.2h-.5a1,1,0,0,0-.61.22.86.86,0,0,0-.34.51Z" transform="translate(-77.38 -3.78)"/><path class="cls-2" d="M115.69,42.07h.25v1a.73.73,0,0,0,.16.46.56.56,0,0,0,.46.19h.19V44h-.14a.77.77,0,0,1-.4-.1.93.93,0,0,1-.27-.25V44a.74.74,0,0,1-.24.55.8.8,0,0,1-.6.23.72.72,0,0,1-.28,0l-.11,0-.07,0,0-.23a.88.88,0,0,0,.27.1l.11,0h.08a.55.55,0,0,0,.62-.55Z" transform="translate(-77.38 -3.78)"/><path class="cls-2" d="M116.74,44v-.23h.37c.37,0,.55-.19.55-.57v-.26a1.25,1.25,0,0,1,.23-.74.93.93,0,0,1,1.47,0,1.32,1.32,0,0,1,0,1.49.85.85,0,0,1-.73.35,1,1,0,0,1-.49-.12.87.87,0,0,1-.31-.32.62.62,0,0,1-.22.28.76.76,0,0,1-.44.12Zm2.42-1.64a.6.6,0,0,0-.53-.29.65.65,0,0,0-.55.29,1,1,0,0,0-.16.58,1,1,0,0,0,.16.58.64.64,0,0,0,.55.3.59.59,0,0,0,.53-.28,1.11,1.11,0,0,0,0-1.18Z" transform="translate(-77.38 -3.78)"/><path class="cls-2" d="M87.15,38.23l-.83-1.84H81.84L81,38.23h-.62l3.36-7.5h.63l3.37,7.5ZM86.1,35.85l-2-4.57-2,4.57Z" transform="translate(-77.38 -3.78)"/><path class="cls-2" d="M95.79,38.23H95l-2.6-2.84h-2v2.84h-.58v-7.5h3.3a2.31,2.31,0,0,1,2.46,2.33,2.21,2.21,0,0,1-2.43,2.3Zm-5.4-3.39H93a1.68,1.68,0,0,0,1.9-1.79,1.73,1.73,0,0,0-1.83-1.79H90.39Z" transform="translate(-77.38 -3.78)"/><path class="cls-2" d="M103.1,38.23h-.73l-4-3.7v3.69h-.57V30.73h.57v3.42l3.65-3.42h.7v.05L99,34.32l4.12,3.87Z" transform="translate(-77.38 -3.78)"/><path class="cls-2" d="M110.9,38.23l-.82-1.84H105.6l-.82,1.84h-.62l3.37-7.5h.63l3.36,7.5Zm-1.05-2.38-2-4.57-2,4.57Z" transform="translate(-77.38 -3.78)"/><path class="cls-2" d="M113.82,30.73l5.05,6.2v-6.2h.57v7.5h-.23L114.15,32v6.2h-.58v-7.5Z" transform="translate(-77.38 -3.78)"/><path class="cls-3" d="M110,5.22A26.33,26.33,0,0,0,98,4C84,6.08,77.38,15.52,77.38,15.52a35,35,0,0,0,11.82,9h0c5.69,2.59,16,4.74,19.28-1.87h0l.27-.1a7.14,7.14,0,0,0,1.46-.82,9,9,0,0,0,1.22-1.07,13.58,13.58,0,0,0,.94-1.07c.25-.34.45-.62.59-.84a2.79,2.79,0,0,0,.2-.36.32.32,0,0,0-.36-.36.38.38,0,0,0-.38.23l-.8,1a4.51,4.51,0,0,1-.66.71,3.78,3.78,0,0,1-.77.5,2,2,0,0,1-.91.22,9.48,9.48,0,0,0,.34-2.59A7.53,7.53,0,0,0,107,12h0a7.14,7.14,0,0,0-2.77-1.48l-.06,0-.37-.09h0a7.76,7.76,0,0,0-1.09-.15,7.28,7.28,0,0,0-1.83.12,8,8,0,0,0-2.2.77,7.43,7.43,0,0,0-2.14,1.69A9.55,9.55,0,0,0,95,15a8.37,8.37,0,0,0-.76,2.26,6.37,6.37,0,0,0,0,2.13,4.69,4.69,0,0,0,.67,1.79,3.63,3.63,0,0,0,1.33,1.22,4.09,4.09,0,0,0,2,.44,3.31,3.31,0,0,0,1.92-.6,7.93,7.93,0,0,0,1.52-1.35,10.1,10.1,0,0,0,1-1.37l.42-.7.33.7a8.37,8.37,0,0,0,.82,1.37,6.94,6.94,0,0,0,1.25,1.35,3.24,3.24,0,0,0,.4.28c-1.65,1.77-4.43,2.85-9.12,1.67-8.2-2.06-6.45-10.31-5.88-11.81.47-1.25,2-5,8.7-6.27a16.78,16.78,0,0,1,4.11-.43c6.54.1,11.08,2.6,16.27,7a17.23,17.23,0,0,1,2.72,2.94C119.8,10.6,114.83,7.1,110,5.22Zm-4.48,10a10.43,10.43,0,0,0-.63-1.36c-.2-.37-.42-.55-.64-.55s-.4.16-.54.5a9.3,9.3,0,0,0-.4,1.25c-.12.51-.27,1.06-.42,1.65a8.16,8.16,0,0,1-.6,1.64,4.08,4.08,0,0,1-.94,1.27,2,2,0,0,1-1.41.51,1.88,1.88,0,0,1-1-.33,2.72,2.72,0,0,1-.9-1,4,4,0,0,1-.47-1.59A5.6,5.6,0,0,1,97.81,15a5.34,5.34,0,0,1,.75-1.56,6.35,6.35,0,0,1,1.17-1.3,5.33,5.33,0,0,1,1.38-.87,3.66,3.66,0,0,1,1.25-.32,4.69,4.69,0,0,1,2.76.86,5.86,5.86,0,0,1,2.83,6.2h0a8.41,8.41,0,0,1-.42,1.53,6.61,6.61,0,0,1-.54-.83,13.14,13.14,0,0,1-.81-1.77C105.94,16.34,105.72,15.75,105.5,15.21Z" transform="translate(-77.38 -3.78)"/><path class="cls-4" d="M104.8,10.74a1.2,1.2,0,0,1,.25.16q.32.24.18.42c-.1.14-.2.2-.31.18a2,2,0,0,1-.42-.14,5,5,0,0,0-.72-.24h0c3.82,1.77,4.57,4.52,4.17,6.93h0a8.41,8.41,0,0,1-.42,1.53,6,6,0,0,0,.46.53,1.71,1.71,0,0,0,1.25.55h0a9.48,9.48,0,0,0,.34-2.59A7.35,7.35,0,0,0,104.8,10.74Z" transform="translate(-77.38 -3.78)"/><g class="cls-5"><path class="cls-6" d="M107.08,22.84a2.62,2.62,0,0,1-1.26-.32,7.36,7.36,0,0,1-6.18,2.14V27c3.73.06,7.18-1,8.84-4.38h0A4.11,4.11,0,0,1,107.08,22.84Z" transform="translate(-77.38 -3.78)"/></g><g class="cls-7"><path class="cls-8" d="M100.82,10.35a8,8,0,0,0-2.2.77,7.43,7.43,0,0,0-2.14,1.69A9.55,9.55,0,0,0,95,15a8.37,8.37,0,0,0-.76,2.26,6.37,6.37,0,0,0,0,2.13,4.88,4.88,0,0,0,.48,1.47,5.11,5.11,0,0,1-.39-1.29,6.37,6.37,0,0,1,0-2.13,8.11,8.11,0,0,1,.75-2.26A9.87,9.87,0,0,1,96.57,13a7.61,7.61,0,0,1,2.14-1.69,8.33,8.33,0,0,1,2.19-.77,7.36,7.36,0,0,1,1.84-.12,8.2,8.2,0,0,1,1.09.15h0l.38.1,0,0a7.09,7.09,0,0,1,2.78,1.47h0a7,7,0,0,1,1.79,2.2A7,7,0,0,0,107,12h0a7.14,7.14,0,0,0-2.77-1.48l-.06,0-.37-.09h0a7.76,7.76,0,0,0-1.09-.15A7.28,7.28,0,0,0,100.82,10.35Z" transform="translate(-77.38 -3.78)"/><path class="cls-8" d="M98.1,4.16a26.46,26.46,0,0,1,12,1.23,25.06,25.06,0,0,1,12.5,10.09l.06.09c-2.82-5-7.79-8.47-12.64-10.35A26.33,26.33,0,0,0,98,4C84,6.08,77.38,15.52,77.38,15.52l.12.13C78,15,84.6,6.18,98.1,4.16Z" transform="translate(-77.38 -3.78)"/><path class="cls-8" d="M107.62,19.76a7.75,7.75,0,0,0,.41-1.54h0a5.83,5.83,0,0,0-.52-3.75,6,6,0,0,1,.44,3.58h0a8.41,8.41,0,0,1-.42,1.53,6.61,6.61,0,0,1-.54-.83l-.18-.34c.09.18.17.35.27.52A7.43,7.43,0,0,0,107.62,19.76Z" transform="translate(-77.38 -3.78)"/><path class="cls-8" d="M103.1,19l.25.52a2.4,2.4,0,0,0,.11.23l0-.05-.32-.71Z" transform="translate(-77.38 -3.78)"/><path class="cls-8" d="M104.23,13.3c-.22,0-.4.16-.54.5a9.3,9.3,0,0,0-.4,1.25c-.12.51-.27,1.06-.42,1.65a8.16,8.16,0,0,1-.6,1.64,4.08,4.08,0,0,1-.94,1.27,2,2,0,0,1-1.41.51,1.88,1.88,0,0,1-1-.33,2.72,2.72,0,0,1-.9-1l0-.06.12.24a2.77,2.77,0,0,0,.9,1,1.81,1.81,0,0,0,1,.34,2,2,0,0,0,1.41-.52,4.06,4.06,0,0,0,.93-1.27,8.84,8.84,0,0,0,.61-1.64l.42-1.64a9.49,9.49,0,0,1,.4-1.26c.14-.33.32-.5.54-.5s.43.19.64.55c0,.08.09.16.13.25-.07-.15-.15-.29-.22-.42C104.67,13.48,104.45,13.3,104.23,13.3Z" transform="translate(-77.38 -3.78)"/></g><g class="cls-5"><path class="cls-9" d="M122.11,14.91c.17.21.35.43.51.66A24,24,0,0,0,112.21,6.2,24.39,24.39,0,0,1,122.11,14.91Z" transform="translate(-77.38 -3.78)"/><path class="cls-9" d="M109.31,20.56a10,10,0,0,0,.31-2.49A7.53,7.53,0,0,0,107,12h0a6.35,6.35,0,0,0-1.51-1,6.68,6.68,0,0,1,1.33.91h0a7.56,7.56,0,0,1,2.67,6.1,9.88,9.88,0,0,1-.34,2.59Z" transform="translate(-77.38 -3.78)"/><path class="cls-9" d="M98.15,22.84a3.31,3.31,0,0,0,1.92-.6,7.93,7.93,0,0,0,1.52-1.35,10.1,10.1,0,0,0,1-1.37l.34-.58-.09-.21c0,.05-.18.28-.42.7a10.06,10.06,0,0,1-1,1.38,7.86,7.86,0,0,1-1.51,1.34,3.26,3.26,0,0,1-1.93.61,4.25,4.25,0,0,1-1.8-.37h0A4.09,4.09,0,0,0,98.15,22.84Z" transform="translate(-77.38 -3.78)"/><path class="cls-9" d="M102.18,10.91a3.59,3.59,0,0,0-1.24.31,5.86,5.86,0,0,0-1.39.87,7,7,0,0,0-1.17,1.3A5.3,5.3,0,0,0,97.64,15a5.64,5.64,0,0,0-.26,2.17,4.13,4.13,0,0,0,.48,1.6,2.77,2.77,0,0,0,.9,1,2.58,2.58,0,0,0,.32.18l-.15-.09a2.72,2.72,0,0,1-.9-1,4,4,0,0,1-.47-1.59A5.6,5.6,0,0,1,97.81,15a5.34,5.34,0,0,1,.75-1.56,6.35,6.35,0,0,1,1.17-1.3,5.33,5.33,0,0,1,1.38-.87,3.66,3.66,0,0,1,1.25-.32,4,4,0,0,1,2,.42A4,4,0,0,0,102.18,10.91Z" transform="translate(-77.38 -3.78)"/><path class="cls-9" d="M103.46,5.6A16.35,16.35,0,0,0,99.34,6c-6.74,1.25-8.22,5-8.7,6.27s-2,8.28,3.85,11.09c-5.65-2.86-4.18-9.66-3.67-11s2-5,8.7-6.27a16.78,16.78,0,0,1,4.11-.43A21.09,21.09,0,0,1,113.08,8,21,21,0,0,0,103.46,5.6Z" transform="translate(-77.38 -3.78)"/></g><path class="cls-10" d="M108.48,22.61l-.26.08C104.84,29.09,94.67,27,89,24.39h0c-.41-.17-.81-.36-1.23-.57.48.24.94.46,1.4.66h0c5.69,2.59,16,4.74,19.28-1.87Z" transform="translate(-77.38 -3.78)"/></g></g></svg>