<svg xmlns="http://www.w3.org/2000/svg" xmlns:xlink="http://www.w3.org/1999/xlink" viewBox="0 0 169.81 153.86"><defs><style>.cls-1{isolation:isolate;}.cls-2{fill:#fff;}.cls-3{fill:url(#linear-gradient);}.cls-4,.cls-5,.cls-9{mix-blend-mode:multiply;}.cls-4{fill:url(#linear-gradient-2);}.cls-6{fill:url(#linear-gradient-3);}.cls-7{mix-blend-mode:overlay;opacity:0.56;}.cls-8,.cls-9{fill:#c8c6c6;}</style><linearGradient id="linear-gradient" x1="395.77" y1="373.86" x2="184.22" y2="404.09" gradientUnits="userSpaceOnUse"><stop offset="0" stop-color="#ddd8c9"/><stop offset="0.13" stop-color="#dbd6c3"/><stop offset="0.3" stop-color="#d6cfb2"/><stop offset="0.49" stop-color="#cec397"/><stop offset="0.54" stop-color="#ccc08f"/><stop offset="0.69" stop-color="#afa57d"/><stop offset="0.89" stop-color="#918869"/><stop offset="1" stop-color="#857d62"/></linearGradient><linearGradient id="linear-gradient-2" x1="329.65" y1="381.37" x2="317.17" y2="395.74" gradientUnits="userSpaceOnUse"><stop offset="0" stop-color="#b4b2b3" stop-opacity="0"/><stop offset="1" stop-color="#878787"/></linearGradient><linearGradient id="linear-gradient-3" x1="296.63" y1="422.85" x2="329.84" y2="422.85" xlink:href="#linear-gradient-2"/></defs><g class="cls-1"><g id="Layer_1" data-name="Layer 1"><path class="cls-2" d="M233.5,487.28h.94v4.78a6.4,6.4,0,0,1-1.35,4.28,4.54,4.54,0,0,1-3.68,1.63,4.46,4.46,0,0,1-3.61-1.63,6.51,6.51,0,0,1-1.34-4.28,8.05,8.05,0,0,1,.38-2.39h1.07a6.28,6.28,0,0,0-.46,2.39,5.68,5.68,0,0,0,1,3.48,3.49,3.49,0,0,0,2.93,1.47,3.64,3.64,0,0,0,3-1.47,5.58,5.58,0,0,0,1.05-3.48Zm-3.45,3H229v-1.17h1.1Z" transform="translate(-213.09 -344.13)"/><path class="cls-2" d="M243.41,495v0a2.83,2.83,0,0,1-.92,2.26,3,3,0,0,1-2.24.69,4.53,4.53,0,0,1-1.05-.21,3,3,0,0,1-.66-.26l-.1-.86a3.53,3.53,0,0,0,1,.37l.39.06h.36c1.53.06,2.31-.63,2.33-2.08h-2a3.76,3.76,0,0,1-2.75-1.09,3.57,3.57,0,0,1-1.09-2.64,4,4,0,0,1,1-2.76,3.63,3.63,0,0,1,2.81-1.21h3v6.82H246V495Zm-.93-.88v-6h-2a2.57,2.57,0,0,0-2.06,1,3,3,0,0,0-.74,2,3.06,3.06,0,0,0,.74,2.06,2.56,2.56,0,0,0,2.06,1Z" transform="translate(-213.09 -344.13)"/><path class="cls-2" d="M245.81,495v-.88h1.42a1.85,1.85,0,0,0,2.06-2.12v-4.16h.93v3.72a2.8,2.8,0,0,0,.59,1.82,2.17,2.17,0,0,0,1.76.74h.71V495h-.56a3,3,0,0,1-1.73-.54,2.51,2.51,0,0,1-1-1.17,2.53,2.53,0,0,1-.8,1.18,2.7,2.7,0,0,1-1.73.53Zm2.11,3h-1.09v-1.17h1.09Zm2.36,0h-1.09v-1.17h1.09Z" transform="translate(-213.09 -344.13)"/><path class="cls-2" d="M256.27,495h-3.15v-.88h3.15Z" transform="translate(-213.09 -344.13)"/><path class="cls-2" d="M262.78,487a3.38,3.38,0,0,1,1.17.47,3.2,3.2,0,0,1,1,1,5.4,5.4,0,0,1,.65,1.83,11.46,11.46,0,0,1-1.25,1.81,10,10,0,0,1-1.89,1.75,3.6,3.6,0,0,0,1.18.19h3.54V495H264a5.11,5.11,0,0,1-2.3-.57,5.06,5.06,0,0,1-2.28.57h-3.25v-.88h3.55a3.76,3.76,0,0,0,1.17-.19,10,10,0,0,1-1.9-1.75,11.94,11.94,0,0,1-1.25-1.81,5.41,5.41,0,0,1,.67-1.83,3.28,3.28,0,0,1,1-1,3.38,3.38,0,0,1,1.17-.47,5.28,5.28,0,0,1,1.11-.13A5.48,5.48,0,0,1,262.78,487Zm-4,3.37.18.34a7,7,0,0,0,.57.92,7.45,7.45,0,0,0,.9,1,5.44,5.44,0,0,0,1.18.9,5.49,5.49,0,0,0,1.19-.9,6.78,6.78,0,0,0,.89-1,7.13,7.13,0,0,0,.59-.92,3.79,3.79,0,0,0,.18-.34l.09-.22a3.31,3.31,0,0,0-.6-1.37,2.85,2.85,0,0,0-.87-.75,2.91,2.91,0,0,0-.87-.31c-.12,0-.24,0-.36-.06h-.48c-.11,0-.23,0-.34.06a2.76,2.76,0,0,0-.86.31,2.63,2.63,0,0,0-.87.75,3.32,3.32,0,0,0-.61,1.37Z" transform="translate(-213.09 -344.13)"/><path class="cls-2" d="M266.91,495v-.88h1.57a1.84,1.84,0,0,0,2-2.12v-8.21h.94v7.77a2.75,2.75,0,0,0,.57,1.82,2.22,2.22,0,0,0,1.78.74h1.23V495H274a3,3,0,0,1-1.74-.54,2.59,2.59,0,0,1-1-1.17,2.5,2.5,0,0,1-.78,1.18,2.75,2.75,0,0,1-1.74.53Z" transform="translate(-213.09 -344.13)"/><path class="cls-2" d="M274.88,495v-.88h1.48a1.85,1.85,0,0,0,2.06-2.12v-8.21h.93v8.06c0,.14,0,.27,0,.4a3.55,3.55,0,0,1-.06.47,3.24,3.24,0,0,1-.34,1.05,2.39,2.39,0,0,1-.83.87,2.92,2.92,0,0,1-1.5.36Z" transform="translate(-213.09 -344.13)"/><path class="cls-2" d="M292.83,487.28h.93v4.78a6.4,6.4,0,0,1-1.34,4.28,4.55,4.55,0,0,1-3.68,1.63,4.46,4.46,0,0,1-3.61-1.63,6.51,6.51,0,0,1-1.34-4.28,8.05,8.05,0,0,1,.38-2.39h1.07a6.28,6.28,0,0,0-.46,2.39,5.68,5.68,0,0,0,1,3.48,3.47,3.47,0,0,0,2.93,1.47,3.64,3.64,0,0,0,3-1.47,5.58,5.58,0,0,0,1.05-3.48Zm-3.45,3h-1.1v-1.17h1.1Z" transform="translate(-213.09 -344.13)"/><path class="cls-2" d="M299,495a2.87,2.87,0,0,1-1.5-.36,2.24,2.24,0,0,1-.83-.87,3.5,3.5,0,0,1-.35-1.05,3.55,3.55,0,0,1-.06-.47c0-.13,0-.26,0-.4v-8.06h.93V492c0,1.41.68,2.12,2,2.12H300V495Z" transform="translate(-213.09 -344.13)"/><path class="cls-2" d="M303.05,495h-3.14v-.88h3.14Z" transform="translate(-213.09 -344.13)"/><path class="cls-2" d="M312.43,487.26a3.62,3.62,0,0,1,2.82,1.25,4.11,4.11,0,0,1,1,2.81,3.5,3.5,0,0,1-1.09,2.6,3.83,3.83,0,0,1-2.77,1.06H303v-.88h9.45a2.66,2.66,0,0,0,2.09-.91,2.93,2.93,0,0,0,.76-2,3.06,3.06,0,0,0-.76-2,2.6,2.6,0,0,0-2.09-1h-7.22a4.16,4.16,0,0,1,1.3-3.08,4.21,4.21,0,0,1,3.08-1.29h2.08v.77h-1.88a3.73,3.73,0,0,0-2.29.8,3.16,3.16,0,0,0-1.27,1.92Z" transform="translate(-213.09 -344.13)"/><path class="cls-2" d="M321.41,487.28h.93V495a2.76,2.76,0,0,1-.91,2.08,3.09,3.09,0,0,1-2.25.87,3.34,3.34,0,0,1-1.05-.19l-.41-.16a1,1,0,0,1-.25-.12l-.1-.86a3.35,3.35,0,0,0,1,.37l.41.07h.28a2.09,2.09,0,0,0,2.33-2.06Z" transform="translate(-213.09 -344.13)"/><path class="cls-2" d="M323.49,482.78l.21-.55h.43v-.59q0-1.35,1.11-1.35c.66,0,1,.36,1.05,1.07h-.59c0-.35-.18-.53-.48-.53s-.54.27-.54.81v.59h1a.16.16,0,0,0,.1,0A.34.34,0,0,0,326,482l.39.36a1,1,0,0,1-.82.38Zm2.26,1h-.93V495h.93Z" transform="translate(-213.09 -344.13)"/><path class="cls-2" d="M334.55,487.82h.93v3.84a2.69,2.69,0,0,0,.61,1.74,2.18,2.18,0,0,0,1.74.7h.71V495H338a3.08,3.08,0,0,1-2.51-1.32V495a2.76,2.76,0,0,1-.91,2.08,3.09,3.09,0,0,1-2.25.87,3.34,3.34,0,0,1-1.05-.19l-.41-.16a1.29,1.29,0,0,1-.26-.12l-.1-.86a3.45,3.45,0,0,0,1,.37l.42.07h.28a2.09,2.09,0,0,0,2.33-2.06Zm1-2.34h-1.09V484.3h1.09Z" transform="translate(-213.09 -344.13)"/><path class="cls-2" d="M347.9,487.26a3.62,3.62,0,0,1,2.82,1.25,4.11,4.11,0,0,1,1,2.81,3.46,3.46,0,0,1-1.09,2.6A3.83,3.83,0,0,1,347.9,495h-9.45v-.88h9.45a2.67,2.67,0,0,0,2.1-.91,3,3,0,0,0,.75-2,3.1,3.1,0,0,0-.75-2,2.62,2.62,0,0,0-2.1-1h-7.22a4.16,4.16,0,0,1,1.3-3.08,4.23,4.23,0,0,1,3.09-1.29h2.07v.77h-1.88a3.75,3.75,0,0,0-2.29.8,3.21,3.21,0,0,0-1.27,1.92Z" transform="translate(-213.09 -344.13)"/><path class="cls-2" d="M356.88,487.82h.94v3.84a2.69,2.69,0,0,0,.61,1.74,2.17,2.17,0,0,0,1.73.7h.71V495h-.55a3,3,0,0,1-1.5-.4,2.85,2.85,0,0,1-1-.92V495a2.8,2.8,0,0,1-.91,2.08,3.1,3.1,0,0,1-2.26.87,3.29,3.29,0,0,1-1-.19,4.09,4.09,0,0,1-.42-.16,1.17,1.17,0,0,1-.25-.12l-.1-.86a3.45,3.45,0,0,0,1,.37l.41.07h.28a2.09,2.09,0,0,0,2.33-2.06Z" transform="translate(-213.09 -344.13)"/><path class="cls-2" d="M360.84,495v-.88h1.38c1.37,0,2.06-.71,2.06-2.14V491a4.48,4.48,0,0,1,.88-2.78,3.45,3.45,0,0,1,5.49,0,4.8,4.8,0,0,1,0,5.57,3.24,3.24,0,0,1-2.74,1.33,3.52,3.52,0,0,1-1.82-.47,3.48,3.48,0,0,1-1.18-1.2,2.31,2.31,0,0,1-.81,1.05,2.81,2.81,0,0,1-1.66.47Zm9.09-6.16a2.42,2.42,0,0,0-4.06,0,3.81,3.81,0,0,0-.63,2.19,3.77,3.77,0,0,0,.63,2.17,2.32,2.32,0,0,0,2,1.11,2.29,2.29,0,0,0,2-1.06,4.35,4.35,0,0,0,0-4.41Z" transform="translate(-213.09 -344.13)"/><path class="cls-2" d="M249.77,473.43l-3.1-6.92H229.85l-3,6.92h-2.34l12.64-28.17h2.37l12.63,28.17Zm-3.94-8.94-7.57-17.14-7.56,17.14Z" transform="translate(-213.09 -344.13)"/><path class="cls-2" d="M282.19,473.43h-2.85l-9.74-10.67h-7.68v10.67h-2.18V445.26h12.4c6.11,0,9.21,4.39,9.25,8.77,0,4.59-3,8.61-9.13,8.61Zm-20.27-12.72h10c4.91,0,7.09-2.77,7.13-6.72a6.5,6.5,0,0,0-6.88-6.72H261.92Z" transform="translate(-213.09 -344.13)"/><path class="cls-2" d="M309.63,473.43H306.9l-14.85-13.89v13.84h-2.17V445.26h2.17V458.1l13.68-12.84h2.61v.2l-14.16,13.28,15.45,14.52Z" transform="translate(-213.09 -344.13)"/><path class="cls-2" d="M338.92,473.43l-3.1-6.92H319L316,473.43h-2.34l12.64-28.17h2.37l12.63,28.17ZM335,464.49l-7.57-17.14-7.56,17.14Z" transform="translate(-213.09 -344.13)"/><path class="cls-2" d="M349.86,445.26l18.95,23.3v-23.3h2.13v28.17h-.84l-19-23.26v23.26h-2.17V445.26Z" transform="translate(-213.09 -344.13)"/><path class="cls-3" d="M335.45,349.52a99.1,99.1,0,0,0-44.9-4.6c-52.75,7.86-77.46,43.27-77.46,43.27,16.12,17.72,31,27.85,44.38,33.63h0c21.37,9.71,60,17.78,72.37-7h0c.33-.12.66-.24,1-.38a26.68,26.68,0,0,0,5.49-3.08,33.93,33.93,0,0,0,4.58-4,49.48,49.48,0,0,0,3.51-4c1-1.26,1.7-2.3,2.22-3.14a10.89,10.89,0,0,0,.77-1.34,1.19,1.19,0,0,0-1.35-1.35,1.43,1.43,0,0,0-1.44.86l-3,3.76a17.09,17.09,0,0,1-2.5,2.7,14.69,14.69,0,0,1-2.89,1.88,7.77,7.77,0,0,1-3.39.81,36.56,36.56,0,0,0,1.27-9.74c0-10.36-4-18-10-22.9h0a26.48,26.48,0,0,0-10.4-5.54l-.22-.07c-.44-.12-.91-.24-1.4-.34l-.06,0h0a31.47,31.47,0,0,0-4.09-.55,26.89,26.89,0,0,0-6.88.43,31.5,31.5,0,0,0-8.24,2.89,28.36,28.36,0,0,0-8,6.36,36.45,36.45,0,0,0-5.69,8.24,31,31,0,0,0-2.84,8.47,23.94,23.94,0,0,0-.09,8,17.11,17.11,0,0,0,2.5,6.69,13.41,13.41,0,0,0,5,4.58,15.36,15.36,0,0,0,7.37,1.68,12.41,12.41,0,0,0,7.22-2.26,29.64,29.64,0,0,0,5.69-5.06,37.08,37.08,0,0,0,3.8-5.15c.93-1.57,1.46-2.46,1.59-2.65.06.19.47,1.08,1.21,2.65a33.48,33.48,0,0,0,3.08,5.15,25.62,25.62,0,0,0,4.72,5.06,9.76,9.76,0,0,0,1.5,1c-6.2,6.65-16.65,10.72-34.26,6.29C254.82,413,261.4,382,263.53,376.41c1.78-4.69,7.37-18.85,32.65-23.54a63.24,63.24,0,0,1,15.46-1.59c24.53.36,41.57,9.73,61,26.07a65.93,65.93,0,0,1,10.23,11C372.32,369.73,353.64,356.59,335.45,349.52ZM318.65,387a44.46,44.46,0,0,0-2.36-5.11c-.77-1.38-1.58-2.07-2.41-2.07s-1.51.63-2,1.88a34.54,34.54,0,0,0-1.5,4.72c-.48,1.89-1,3.95-1.59,6.16a32.19,32.19,0,0,1-2.26,6.17,15.74,15.74,0,0,1-3.52,4.77,7.59,7.59,0,0,1-5.29,1.92,6.93,6.93,0,0,1-3.71-1.25,10.18,10.18,0,0,1-3.37-3.71,15.3,15.3,0,0,1-1.79-6,21.31,21.31,0,0,1,1-8.14,19.54,19.54,0,0,1,2.79-5.88,24.65,24.65,0,0,1,4.38-4.86,21.7,21.7,0,0,1,5.2-3.28,14,14,0,0,1,4.68-1.17c4.62-.2,7.59,1.58,10.36,3.23,10,6.55,11.93,15.39,10.62,23.24h0a31.72,31.72,0,0,1-1.57,5.76,27.54,27.54,0,0,1-2-3.12,49.22,49.22,0,0,1-3-6.65Q319.85,390.05,318.65,387Z" transform="translate(-213.09 -344.13)"/><path class="cls-4" d="M316,370.24a6.48,6.48,0,0,1,.95.6c.77.61,1,1.14.68,1.59s-.78.74-1.16.68a7.64,7.64,0,0,1-1.59-.53,22.32,22.32,0,0,0-2.7-.92h0c14.34,6.67,17.15,17,15.64,26h0a31.72,31.72,0,0,1-1.57,5.76,21.14,21.14,0,0,0,1.73,2,6.43,6.43,0,0,0,4.67,2.08h.18a36.56,36.56,0,0,0,1.27-9.74C334.11,383.22,326.25,374.08,316,370.24Z" transform="translate(-213.09 -344.13)"/><g class="cls-5"><path class="cls-6" d="M324.57,415.68a9.36,9.36,0,0,1-4.71-1.23c-4.77,5.13-12.08,8.71-23.23,8.06v8.73c14,.22,27-3.92,33.21-16.43h0A16.14,16.14,0,0,1,324.57,415.68Z" transform="translate(-213.09 -344.13)"/></g><g class="cls-7"><path class="cls-2" d="M301.07,368.77a31.5,31.5,0,0,0-8.24,2.89,28.36,28.36,0,0,0-8,6.36,36.45,36.45,0,0,0-5.69,8.24,31,31,0,0,0-2.84,8.47,23.94,23.94,0,0,0-.09,8,17.64,17.64,0,0,0,1.8,5.49,18.35,18.35,0,0,1-1.48-4.84,24.15,24.15,0,0,1,.1-8,31,31,0,0,1,2.84-8.48,36.62,36.62,0,0,1,5.68-8.24,28.21,28.21,0,0,1,8.05-6.35,30.84,30.84,0,0,1,8.23-2.89,27,27,0,0,1,6.89-.44,31.45,31.45,0,0,1,4.08.56h.06c.49.1,1,.22,1.4.35l.21.06a26.6,26.6,0,0,1,10.41,5.54h0a26.08,26.08,0,0,1,6.7,8.27,26.08,26.08,0,0,0-7-8.93h0a26.48,26.48,0,0,0-10.4-5.54l-.22-.07c-.44-.12-.91-.24-1.4-.34l-.06,0h0a31.47,31.47,0,0,0-4.09-.55A26.89,26.89,0,0,0,301.07,368.77Z" transform="translate(-213.09 -344.13)"/><path class="cls-2" d="M290.88,345.57a99.08,99.08,0,0,1,44.89,4.61c17.88,6.94,36.21,19.75,46.89,37.87l.25.32c-10.59-18.64-29.27-31.78-47.46-38.85a99.1,99.1,0,0,0-44.9-4.6c-52.75,7.86-77.46,43.27-77.46,43.27l.45.48C215.42,386.08,240.21,353.12,290.88,345.57Z" transform="translate(-213.09 -344.13)"/><path class="cls-2" d="M326.59,404.09a30.7,30.7,0,0,0,1.56-5.76h0a22.13,22.13,0,0,0-2-14.08,22.29,22.29,0,0,1,1.65,13.43h0a31.72,31.72,0,0,1-1.57,5.76,27.54,27.54,0,0,1-2-3.12c-.23-.42-.45-.85-.68-1.29.33.67.66,1.32,1,1.94A25.45,25.45,0,0,0,326.59,404.09Z" transform="translate(-213.09 -344.13)"/><path class="cls-2" d="M309.65,401.26c.2.44.5,1.09.91,1.95.13.28.27.57.43.87,0-.07-.07-.15-.11-.22-.74-1.57-1.14-2.45-1.2-2.65Z" transform="translate(-213.09 -344.13)"/><path class="cls-2" d="M313.88,379.85c-.84,0-1.51.63-2,1.88a34.54,34.54,0,0,0-1.5,4.72c-.48,1.89-1,3.95-1.59,6.16a32.19,32.19,0,0,1-2.26,6.17,15.74,15.74,0,0,1-3.52,4.77,7.59,7.59,0,0,1-5.29,1.92,6.93,6.93,0,0,1-3.71-1.25,10.18,10.18,0,0,1-3.37-3.71,1.71,1.71,0,0,1-.13-.23c.14.3.29.6.45.89a10.31,10.31,0,0,0,3.37,3.7,7,7,0,0,0,3.71,1.26,7.56,7.56,0,0,0,5.3-1.93,15.82,15.82,0,0,0,3.52-4.77,32.77,32.77,0,0,0,2.26-6.16c.58-2.22,1.11-4.27,1.59-6.17a36.64,36.64,0,0,1,1.49-4.72c.52-1.25,1.19-1.88,2-1.88s1.63.69,2.4,2.07c.16.29.33.6.49.92-.27-.56-.54-1.09-.81-1.57C315.52,380.54,314.71,379.85,313.88,379.85Z" transform="translate(-213.09 -344.13)"/></g><g class="cls-5"><path class="cls-8" d="M381,385.89c.67.82,1.31,1.64,1.94,2.48-9-15.78-23.72-27.61-39.07-35.16C358.25,360.42,372.06,371.41,381,385.89Z" transform="translate(-213.09 -344.13)"/><path class="cls-8" d="M332.94,407.11a36.81,36.81,0,0,0,1.17-9.36c0-10.36-4-18-10-22.9h0a24.74,24.74,0,0,0-5.66-3.74,24.78,24.78,0,0,1,5,3.41h0c6,4.91,10,12.53,10,22.89a37,37,0,0,1-1.27,9.74A6.3,6.3,0,0,0,332.94,407.11Z" transform="translate(-213.09 -344.13)"/><path class="cls-8" d="M291.05,415.68a12.41,12.41,0,0,0,7.22-2.26,29.64,29.64,0,0,0,5.69-5.06,37.08,37.08,0,0,0,3.8-5.15q.89-1.5,1.29-2.16c-.2-.45-.32-.72-.35-.82-.13.2-.66,1.08-1.59,2.65A36.46,36.46,0,0,1,303.3,408a29.87,29.87,0,0,1-5.68,5,12.41,12.41,0,0,1-7.22,2.27,15.74,15.74,0,0,1-6.77-1.39l.05,0A15.36,15.36,0,0,0,291.05,415.68Z" transform="translate(-213.09 -344.13)"/><path class="cls-8" d="M306.19,370.88a13.79,13.79,0,0,0-4.67,1.18,21.35,21.35,0,0,0-5.2,3.27,24.4,24.4,0,0,0-4.38,4.87,19.64,19.64,0,0,0-2.8,5.87,21.11,21.11,0,0,0-1,8.14,15.47,15.47,0,0,0,1.78,6,10.31,10.31,0,0,0,3.37,3.7,9.21,9.21,0,0,0,1.22.66c-.19-.1-.37-.21-.56-.33a10.18,10.18,0,0,1-3.37-3.71,15.3,15.3,0,0,1-1.79-6,21.31,21.31,0,0,1,1-8.14,19.54,19.54,0,0,1,2.79-5.88,24.65,24.65,0,0,1,4.38-4.86,21.7,21.7,0,0,1,5.2-3.28,14,14,0,0,1,4.68-1.17,14.84,14.84,0,0,1,7.32,1.54A15.16,15.16,0,0,0,306.19,370.88Z" transform="translate(-213.09 -344.13)"/><path class="cls-8" d="M311,351a63.15,63.15,0,0,0-15.45,1.6c-25.28,4.68-30.87,18.85-32.65,23.54-1.93,5.09-7.53,31.06,14.45,41.61-21.21-10.74-15.71-36.24-13.8-41.29,1.78-4.69,7.37-18.85,32.65-23.54a63.24,63.24,0,0,1,15.46-1.59,78.88,78.88,0,0,1,35.45,8.5A79,79,0,0,0,311,351Z" transform="translate(-213.09 -344.13)"/></g><path class="cls-9" d="M329.83,414.8l-1,.3c-12.68,24-50.86,16-72.05,6.4h0q-2.26-1-4.59-2.14,2.67,1.35,5.25,2.46h0c21.37,9.71,60,17.78,72.37-7h0Z" transform="translate(-213.09 -344.13)"/></g></g></svg>